<svg xmlns="http://www.w3.org/2000/svg" width="22" height="22"><path d="M3.3 17.6a.367.367 0 0 0 0 .733h3.667a.367.367 0 0 0 0-.733H6.6V8.8h.367a.367.367 0 0 0 0-.733H3.3a.367.367 0 0 0 0 .733h.367v8.8H3.3zm1.1-8.8h1.467v8.8H4.4V8.8zM.367 7.333h21.266a.367.367 0 0 0 .193-.678L11.193.055a.367.367 0 0 0-.386 0L.174 6.655a.367.367 0 0 0 .193.678zM11 .798L20.347 6.6H1.653L11 .798zM1.467 19.433c0 .203.164.367.366.367h18.334a.367.367 0 0 0 0-.733H1.833a.367.367 0 0 0-.366.366zM21.633 20.533H.367A.367.367 0 0 0 0 20.9v.733a.367.367 0 0 0 .733 0v-.366h20.534v.366a.367.367 0 0 0 .733 0V20.9a.367.367 0 0 0-.367-.367zM9.167 17.6a.367.367 0 0 0 0 .733h3.666a.367.367 0 0 0 0-.733h-.366V8.8h.366a.367.367 0 0 0 0-.733H9.167a.367.367 0 0 0 0 .733h.366v8.8h-.366zm1.1-8.8h1.466v8.8h-1.466V8.8zM15.033 17.6a.367.367 0 0 0 0 .733H18.7a.367.367 0 0 0 0-.733h-.367V8.8h.367a.367.367 0 0 0 0-.733h-3.667a.367.367 0 0 0 0 .733h.367v8.8h-.367zm1.1-8.8H17.6v8.8h-1.467V8.8z"/></svg>