<svg xmlns="http://www.w3.org/2000/svg" width="14" height="14"><path d="M12.613 1.226h-1.415V.511c0-.276-.227-.5-.506-.5a.503.503 0 0 0-.507.5v.715h-6.37V.511c0-.276-.227-.5-.507-.5a.503.503 0 0 0-.506.5v.715H1.387c-.758 0-1.375.609-1.375 1.357v10.049c0 .748.617 1.356 1.375 1.356h11.226c.758 0 1.375-.608 1.375-1.356V2.582c0-.747-.617-1.356-1.375-1.356zM1.025 2.583a.36.36 0 0 1 .362-.357h1.415v.57c0 .276.227.5.506.5.28 0 .507-.224.507-.5v-.57h6.37v.57c0 .276.227.5.507.5s.506-.224.506-.5v-.57h1.415c.2 0 .362.16.362.357v1.256H1.025V2.583zm11.95 10.049a.36.36 0 0 1-.362.357H1.387a.36.36 0 0 1-.362-.357V4.838h11.95v7.794z"/><path d="M12.613 14H1.387A1.379 1.379 0 0 1 0 12.632V2.582c0-.754.622-1.367 1.387-1.367H2.79V.51C2.79.23 3.022 0 3.308 0c.286 0 .519.23.519.511v.704h6.346V.51c0-.282.233-.511.519-.511.286 0 .518.23.518.511v.704h1.403c.765 0 1.387.613 1.387 1.368v10.049c0 .754-.622 1.368-1.387 1.368zM1.387 1.238c-.752 0-1.363.603-1.363 1.345v10.049c0 .741.611 1.345 1.363 1.345h11.226c.752 0 1.363-.604 1.363-1.345V2.582c0-.74-.611-1.344-1.363-1.344h-1.427V.51a.492.492 0 0 0-.494-.488.492.492 0 0 0-.495.488v.727H3.803V.51a.492.492 0 0 0-.495-.488.492.492 0 0 0-.494.488v.727H1.387zM12.613 13H1.387a.372.372 0 0 1-.374-.369V4.827h11.974v7.805a.372.372 0 0 1-.374.369zM1.037 4.85v7.781c0 .19.157.345.35.345h11.226c.193 0 .35-.155.35-.345V4.85H1.037zm11.95-1H1.013V2.583c0-.204.168-.369.374-.369h1.427v.582c0 .269.222.488.494.488a.492.492 0 0 0 .495-.488v-.582h6.394v.582c0 .269.222.488.495.488a.492.492 0 0 0 .494-.488v-.582h1.427c.206 0 .374.165.374.369V3.85zm-11.95-.024h11.926V2.583a.348.348 0 0 0-.35-.346H11.21v.559a.515.515 0 0 1-.518.511.515.515 0 0 1-.519-.511v-.559H3.827v.559a.515.515 0 0 1-.519.511.515.515 0 0 1-.518-.511v-.559H1.387a.348.348 0 0 0-.35.346v1.244z"/></svg>