<svg width="20" height="20" xmlns="http://www.w3.org/2000/svg"><path d="M11.384 1.003c4.621.13 8.484 4.05 8.613 8.739.138 5.089-3.893 9.258-8.87 9.258a8.65 8.65 0 0 1-5.44-1.91c-.463-.36-.492-1.07-.078-1.49a.97.97 0 0 1 1.3-.08A6.733 6.733 0 0 0 11.128 17c3.844 0 6.948-3.189 6.899-7.098-.05-3.72-3.134-6.849-6.8-6.899-3.863-.05-6.997 3.1-6.997 6.999h1.764c.444 0 .66.54.355.85l-2.75 2.799c-.197.2-.502.2-.7 0l-2.749-2.8a.496.496 0 0 1 .345-.85h1.764c0-5.048 4.11-9.137 9.126-8.998zM10.632 6c.346 0 .633.329.633.715v3.286l2.428 1.652c.295.203.397.648.22.996-.178.338-.565.454-.869.25l-2.63-1.787a1.014 1.014 0 0 1-.414-.831V6.725c0-.396.287-.725.632-.725z" fill="#fff" fill-rule="evenodd"/></svg>