<svg width="28" height="25" xmlns="http://www.w3.org/2000/svg"><g fill="#FFF" fill-rule="evenodd"><path d="M8.664 0H28v19.691a7.526 7.526 0 0 1-2.157 3.37c-1.023.93-2.253 1.576-3.689 1.939H0l12.102-14.246h9.608l2.698-3.49H10.132L6.61 11.156V6.2c.148-.61.407-1.109.777-1.495.37-.386.87-.681 1.503-.885h15.518v14.6c-.147.768-.442 1.378-.886 1.829-.443.45-1.047.757-1.812.918H3.045V5.778c.372-1.521 1.004-2.74 1.894-3.655C5.83 1.207 7.071.499 8.664 0z"/><path fill-opacity=".843" d="M11 18l2.897-4H19l-3.124 4z"/></g></svg>