<svg xmlns="http://www.w3.org/2000/svg" width="22" height="22"><path d="M9.528 12.59a4.46 4.46 0 0 0-.097.917c0 .104.009.207.016.31H.614A.614.614 0 0 1 0 13.202V3.79c0-.338.275-.613.614-.613h19.108c.339 0 .613.275.613.613v7.327l-1.227-.464V6.246a1.436 1.436 0 0 1-1.89-1.84L3.08 4.404a1.432 1.432 0 0 1-1.854 1.854v4.382a1.436 1.436 0 0 1 1.814 1.948h6.487zm1.745-2.681H8.912c0-.565.337-1.05.821-1.266a1.014 1.014 0 1 1 1.046-.035c.452.167.792.563.882 1.048a4.41 4.41 0 0 1 1.199-.477 2.734 2.734 0 0 0-1.041-2.815h1.304v-1.35h-5.91v1.35h1.349a2.734 2.734 0 0 0-.17 4.267h-1.18v1.35h2.495a4.466 4.466 0 0 1 1.566-2.072zm2.61 6.529a2.89 2.89 0 1 1 2.106-4.864c.245-.148.505-.27.779-.365a3.715 3.715 0 1 0-2.205 5.99 4.086 4.086 0 0 1-.359-.78 2.977 2.977 0 0 1-.32.019zm.687-5.047h-.758l-.032.168c-.044.23-.179.535-.842.535h-.207v.802h.207c.286 0 .526-.03.724-.09v2.927h.377a4.074 4.074 0 0 1-.053-.626c0-.77.215-1.488.583-2.106v-1.61zM22 15.106a3.715 3.715 0 1 1-7.43.001 3.715 3.715 0 0 1 7.43 0zm-.825 0a2.89 2.89 0 1 0-5.779 0 2.89 2.89 0 0 0 5.779 0zm-2.993-1.99c-.044.23-.179.536-.842.536h-.207v.803h.207c.287 0 .527-.03.724-.09v2.926h.908V12.95h-.758l-.032.168z"/></svg>