<svg width="20" height="20" xmlns="http://www.w3.org/2000/svg"><path d="M14.665 12.898h-.927l-.328-.317a7.618 7.618 0 0 0 1.736-6.26C14.595 3.06 11.873.457 8.588.058 3.626-.55-.55 3.624.06 8.583c.4 3.283 3.004 6.003 6.265 6.554a7.63 7.63 0 0 0 6.265-1.735l.316.328v.927l4.986 4.982a1.24 1.24 0 0 0 1.748 0 1.238 1.238 0 0 0 0-1.747l-4.974-4.994zm-7.039 0a5.27 5.27 0 0 1-5.279-5.276 5.27 5.27 0 0 1 5.28-5.276 5.27 5.27 0 0 1 5.278 5.276 5.27 5.27 0 0 1-5.279 5.276z" fill="none" fill-rule="evenodd"/></svg>