<svg width="25" height="25" xmlns="http://www.w3.org/2000/svg"><path d="M20.523 13.45c.043-.333.075-.667.075-1.021 0-.355-.032-.689-.075-1.022L22.8 9.686a.514.514 0 0 0 .13-.668L20.77 5.41a.543.543 0 0 0-.475-.26.52.52 0 0 0-.183.03l-2.688 1.044A7.958 7.958 0 0 0 15.6 5.202l-.41-2.764A.521.521 0 0 0 14.661 2h-4.318a.521.521 0 0 0-.528.438l-.41 2.764A8.368 8.368 0 0 0 7.58 6.224L4.892 5.18a.63.63 0 0 0-.194-.032.538.538 0 0 0-.464.261l-2.16 3.608a.503.503 0 0 0 .13.668l2.278 1.72a7.995 7.995 0 0 0-.076 1.023c0 .344.033.688.076 1.022l-2.278 1.72a.514.514 0 0 0-.13.668l2.16 3.608c.097.167.28.26.475.26a.52.52 0 0 0 .183-.03l2.688-1.043a7.958 7.958 0 0 0 1.824 1.022l.41 2.763c.033.25.26.438.53.438h4.317c.27 0 .497-.188.53-.438l.41-2.763a8.368 8.368 0 0 0 1.824-1.022l2.688 1.042a.63.63 0 0 0 .194.032.538.538 0 0 0 .464-.261l2.159-3.608a.514.514 0 0 0-.13-.668l-2.277-1.72zm-2.138-1.783c.044.324.054.543.054.762 0 .219-.021.448-.054.76l-.15 1.18.96.73 1.166.875-.756 1.262-1.37-.532-1.123-.438-.972.71a6.378 6.378 0 0 1-1.35.76l-1.143.45-.173 1.178-.216 1.407h-1.511l-.205-1.407-.173-1.179-1.144-.448a6.181 6.181 0 0 1-1.328-.74l-.982-.73-1.145.448-1.37.532-.756-1.262 1.166-.876.96-.73-.15-1.179a8.108 8.108 0 0 1-.055-.771c0-.209.022-.449.054-.762l.151-1.178-.96-.73-1.166-.876L5.4 7.62l1.37.532 1.123.438.972-.71a6.378 6.378 0 0 1 1.349-.76l1.144-.449.173-1.178.216-1.408h1.5l.205 1.408.173 1.178 1.144.448c.464.188.896.428 1.328.74l.982.73 1.145-.448 1.37-.531.756 1.261-1.155.887-.96.73.15 1.178zm-5.883-3.41c-2.385 0-4.317 1.867-4.317 4.172 0 2.304 1.932 4.17 4.317 4.17 2.386 0 4.318-1.866 4.318-4.17 0-2.305-1.932-4.172-4.318-4.172zm0 6.257c-1.187 0-2.159-.938-2.159-2.085 0-1.148.972-2.086 2.16-2.086 1.187 0 2.158.938 2.158 2.086 0 1.147-.971 2.085-2.159 2.085z" fill="#2B4575" fill-rule="nonzero"/></svg>