<svg width="25" height="25" xmlns="http://www.w3.org/2000/svg"><path d="M2.895 3.179c-.144-.239-.366-.239-.509 0L1.104 5.314c-.222.381-.065 1.025.258 1.025h.456v6.082c0 .656 1.542.656 1.542 0V6.34h.566c.323 0 .48-.644.251-1.014L2.895 3.18zm20.954 17.42c.239-.143.239-.365 0-.508l-2.135-1.282c-.381-.223-1.025-.065-1.025.257v.566h-6.082c-.656 0-.656 1.535 0 1.535h6.082v.464c0 .323.644.48 1.013.251L23.85 20.6zM18.25 7.13H3.464c-.903 0-1.643.703-1.643 1.56v10.924c0 .858.74 1.56 1.643 1.56H18.25c.904 0 1.643-.702 1.643-1.56V8.69c0-.858-.74-1.56-1.643-1.56zm-.821 12.484H4.286c-.452 0-.822-.352-.822-.78V9.47c0-.43.37-.78.822-.78h7.393v2.34c0 .43.37.78.821.78h5.75v7.022c0 .43-.37.78-.821.78z" fill="#000" fill-rule="nonzero"/></svg>