<svg xmlns="http://www.w3.org/2000/svg" width="23.438" height="25" fill="#fff"><path d="M8.79 8.79h5.858v5.907H8.79zm0-1.466h2.196V4.498A2.926 2.926 0 0 0 8.79 7.324zM12.451 0v3.004c2.074.35 3.662 2.148 3.662 4.32h2.93c0-3.787-2.901-6.95-6.592-7.324zM4.395 7.324h2.93c0-2.172 1.587-3.97 3.661-4.32V0c-3.69.374-6.591 3.537-6.591 7.324zm0 1.466h2.93v5.907h-2.93zm8.056-1.466h2.197a2.926 2.926 0 0 0-2.197-2.826zm3.662 1.466h2.93v5.907h-2.93zM0 24.268c0 .404.328.732.732.732h21.973a.732.732 0 0 0 .733-.732V22.02H0zm5.86-8.106h2.93v4.395H5.86zm4.394 0h2.93v4.395h-2.93zm12.451 0h-3.662v4.395h4.395v-3.662a.732.732 0 0 0-.733-.733zm-18.31 0H.732a.732.732 0 0 0-.732.733v3.662h4.395zm10.253 0h2.93v4.395h-2.93zm0 0"/></svg>