<svg xmlns="http://www.w3.org/2000/svg" width="23" height="22.358"><path d="M3.47 5.911h9.122v4.626H3.47zm3.918-1.349V0H0v4.626h7.382c-.007 0 .006-.045.006-.064zm0 7.318c0-.02-.006-.058-.006-.058H0v4.625h7.388V11.88zm10.408 4.567V11.88a.228.228 0 0 1 .026-.057H8.66a.168.168 0 0 1 .013.057v4.568h9.123zm0-11.885V0H8.673v4.562c0 .02-.006.045-.013.064h9.162c-.013-.02-.026-.038-.026-.064zM0 5.911h2.184v4.626H0zm13.877 0H23v4.626h-9.123zm5.204 5.969v4.567H23v-4.625h-3.9l-.019.057zM0 17.732h2.184v4.626H0zM19.081 0v4.562c.006.02.013.045.02.064H23V0h-3.919zM3.47 17.732h9.122v4.626H3.47zm10.407 0H23v4.626h-9.123z" fill="#fff"/></svg>