<svg width="25" height="25" xmlns="http://www.w3.org/2000/svg"><path d="M6.35 17.454H8.8v2.182a.36.36 0 0 0 .099.261c.065.069.15.103.251.103h1.827a.339.339 0 0 0 .246-.103.35.35 0 0 0 .104-.26v-2.183h5.523a.334.334 0 0 0 .252-.102.36.36 0 0 0 .098-.261v-1.455a.36.36 0 0 0-.098-.26.334.334 0 0 0-.252-.103h-5.524v-1.341h3.72c1.457 0 2.648-.462 3.57-1.387.923-.923 1.384-2.117 1.384-3.58 0-1.46-.461-2.654-1.384-3.579C17.694 4.463 16.503 4 15.046 4H9.15a.335.335 0 0 0-.252.102.363.363 0 0 0-.098.262v7.147H6.35a.325.325 0 0 0-.252.108.367.367 0 0 0-.098.256v1.693c0 .106.033.193.098.261.066.069.15.103.252.103H8.8v1.34H6.35a.334.334 0 0 0-.252.103.361.361 0 0 0-.098.261v1.455c0 .106.033.193.098.261.066.069.15.102.252.102zm4.976-11.033h3.5c.773 0 1.397.234 1.87.704.475.47.712 1.084.712 1.841 0 .758-.237 1.372-.711 1.84-.474.47-1.098.706-1.87.706h-3.5V6.42z" fill="#000" fill-rule="nonzero"/></svg>