<svg width="25" height="25" xmlns="http://www.w3.org/2000/svg"><path d="M1.757 3.045c-.269.072-.627.424-.7.689-.077.295-.077 4.508.006 4.747.088.274.238.45.471.58.208.109.296.114 1.695.14 1.052.02 1.508.047 1.59.093a.542.542 0 0 1 .275.477c0 .186-.668 4.353-.803 4.99-.119.565-.254.726-.824.99-.544.254-.705.42-.746.788l-.026.228H7.37c3.7 0 4.67-.016 4.67-.067 0-.177-.125-.472-.265-.633-.181-.207-.295-.243-1.72-.57-.912-.207-1.005-.238-1.135-.383-.187-.207-.187-.27.015-1.498l.166-.995h.4c.595 0 .58.026.777-1.217.088-.57.176-1.089.191-1.15.016-.068-.015-.151-.082-.219-.089-.088-.171-.108-.472-.108-.197 0-.363-.016-.363-.036 0-.016.026-.177.057-.353l.057-.326 1.25-.026c1.346-.031 1.647-.073 2.497-.352.55-.187 1.373-.565 1.617-.752l.171-.13v-1.86c0-1.648-.01-1.866-.083-1.943-.124-.125-1.176-.622-1.648-.778a13.756 13.756 0 0 0-.855-.248c-.435-.104-.55-.11-5.55-.12-3.42-.01-5.172.005-5.307.042zM12.06 4.148l-.14-.13H2.546l-.15.151c-.16.16-.187.306-.088.487.13.249-.052.239 4.928.244h4.705l.125-.13a.423.423 0 0 0-.006-.622zm4.25.099c-.093.072-.099.16-.114 1.725-.01.907 0 1.7.015 1.762.063.265.114.275 1.244.275.58 0 1.093-.016 1.14-.031.156-.062.752-.902.752-1.068v-.145h2.243c2.115 0 2.254-.005 2.332-.093.135-.145.125-1.047-.005-1.166-.088-.078-.326-.088-2.332-.088h-2.238v-.145c0-.166-.596-1.005-.752-1.068-.047-.015-.56-.03-1.135-.03-.824 0-1.067.015-1.15.072zM2.71 19.399c0 1.69 0 1.705.119 1.882.062.093.197.228.29.29l.177.119h4.036c4.535 0 4.276.02 4.54-.378l.14-.207v-3.38l-4.649-.015-4.653-.01v1.7z" fill="#FFF" fill-rule="nonzero"/></svg>