<svg width="25" height="25" xmlns="http://www.w3.org/2000/svg"><path d="M14 7V5c0-1.1-.9-2-2-2H6c-1.1 0-2 .9-2 2v14c0 1.1.9 2 2 2h16c1.1 0 2-.9 2-2V9c0-1.1-.9-2-2-2h-8zM8 19H6v-2h2v2zm0-4H6v-2h2v2zm0-4H6V9h2v2zm0-4H6V5h2v2zm4 12h-2v-2h2v2zm0-4h-2v-2h2v2zm0-4h-2V9h2v2zm0-4h-2V5h2v2zm9 12h-7v-2h2v-2h-2v-2h2v-2h-2V9h7c.55 0 1 .45 1 1v8c0 .55-.45 1-1 1zm-1-8h-2v2h2v-2zm0 4v2h-2v-2h2zM1.895 11.179l1.282 2.146c.23.37.072 1.014-.25 1.014H2.36v6.082c0 .656-1.542.656-1.542 0V14.34H.362c-.323 0-.48-.644-.258-1.025l1.282-2.135c.143-.239.365-.239.509 0z" fill="#000" fill-rule="nonzero"/></svg>