<svg xmlns="http://www.w3.org/2000/svg" width="25" height="25"><path d="M13.349 3.906a1.71 1.71 0 0 0 3.088 0h-3.088zm2.618 14.746h5.127v2.442h-5.127zM3.906 6.445v8.301h2.93V6.445h-2.93zm2.198 7.325H4.639v-1.465h1.465v1.465zm0-2.442H4.639V9.863h1.465v1.465zm0-2.441H4.639V7.422h1.465v1.465zm-2.198 9.765h2.93v2.442h-2.93zm8.301-3.906V11.37l-1.953-2.13-1.953 2.13v3.377zM8.3 18.652h3.907v2.442H8.301zm5.372 0h.83v2.442h-.83z"/><path d="M0 0v25h25V0H0zm22.559 22.559H2.44v-5.372h20.12v5.372zm0-6.348H2.44V2.44h20.12v13.77z"/><path d="M15.967 8.887v5.86h5.127v-5.86h-5.127zm2.441 4.883h-1.465v-1.465h1.465v1.465zm0-2.442h-1.465V9.863h1.465v1.465zm1.953 2.442h-1.465v-1.465h1.465v1.465zm0-2.442h-1.465V9.863h1.465v1.465z"/><path d="M17.98 3.906c-.074.314-.195.61-.355.88l1.592 1.107-.836 1.202-1.788-1.243a3.154 3.154 0 0 1-2.012.48l-.973 2.17-1.337-.598.92-2.053a3.198 3.198 0 0 1-.56-.454l-2.052.67-.455-1.392 1.735-.567a3.149 3.149 0 0 1-.054-.202H3.906v1.075h4.395V9.2l1.953-2.13 3.418 3.728v3.947h.83V7.422h6.592V3.906H17.98z"/></svg>